<svg xmlns:inkscape="http://www.inkscape.org/namespaces/inkscape" xmlns:sodipodi="http://sodipodi.sourceforge.net/DTD/sodipodi-0.dtd" xmlns="http://www.w3.org/2000/svg" xmlns:svg="http://www.w3.org/2000/svg" version="1.1" id="svg40" sodipodi:docname="BPFlowerComplete.svg" xml:space="preserve" inkscape:version="1.2 (dc2aedaf03, 2022-05-15)" viewBox="0 -389.96 7529.06 4188.08"><sodipodi:namedview id="namedview42" pagecolor="#ffffff" bordercolor="#666666" borderopacity="1.0" inkscape:showpageshadow="2" inkscape:pageopacity="0.0" inkscape:pagecheckerboard="0" inkscape:deskcolor="#d1d1d1" showgrid="false" showguides="false" inkscape:zoom="0.11661739" inkscape:cx="3781.5974" inkscape:cy="1860.786" inkscape:window-width="1366" inkscape:window-height="697" inkscape:window-x="-8" inkscape:window-y="-8" inkscape:window-maximized="1" inkscape:current-layer="svg40"/><defs id="defs14"><clipPath id="clip_0"><path transform="scale(0.24)" d="M 0,0 H 1562.5 V 1593.75 H 0 Z" fill-rule="evenodd" id="path2"/></clipPath><clipPath id="clip_1"><path transform="scale(0.24)" d="M 0,0 H 1562.5 V 1562.5 H 0 Z" fill-rule="evenodd" id="path5"/></clipPath><clipPath id="clip_2"><path transform="scale(0.24)" d="M 0,0 H 1562.5 V 1562.5 H 0 Z" fill-rule="evenodd" id="path8"/></clipPath><clipPath id="clip_3"><path transform="scale(0.24)" d="m 337.83909,581.7151 h 887.50001 v 400 H 337.83909 Z" fill-rule="evenodd" id="path11"/></clipPath></defs><g clip-path="url(#clip_3)" id="g38" transform="matrix(35.24791,0,0,35.24791,-2833.1085,-5310.916)"><path transform="matrix(0.18821569,0,0,0.18853101,-0.6249243,-7.008955)" d="m 1066.3086,960.28909 c 0,100.83981 -66.3086,182.60151 -66.3086,182.60151 0,0 -66.3125,-81.7617 -66.3125,-182.60151 C 933.6875,859.4414 1000,777.6914 1000,777.6914 c 0,0 66.3086,81.75 66.3086,182.59769" fill="#b2164f" id="path28"/><path transform="matrix(0.18821569,0,0,0.18853101,-0.6249243,-7.008955)" d="m 1201.4297,838.26956 c 0,0 -63.168,19.92184 -117.0508,70.14062 3.1992,16.5 5.1406,33.8711 5.1406,51.87891 0,70.10151 -28.9687,130.85151 -50.0507,165.80081 34.2304,-17.25 83.3593,-48.7383 116.5625,-98.9415 55.6171,-84.11712 45.3984,-188.87884 45.3984,-188.87884 z M 915.625,908.41018 C 861.7344,858.1914 798.5664,838.26956 798.5664,838.26956 c 0,0 -10.22262,104.76172 45.40628,188.87884 33.19531,50.2032 82.32812,81.6915 116.5625,98.9415 -21.08598,-34.9493 -50.05859,-95.6993 -50.05859,-165.80081 0,-18.00781 1.94531,-35.37891 5.14841,-51.87891" fill="#ed0e64" id="path30"/><path transform="matrix(0.18821569,0,0,0.18853101,-0.6249243,-7.008955)" d="m 824.6133,1039.9492 c -6.53124,-9.8789 -12.1836,-19.9882 -17.14843,-30.1796 -80.29688,-12.9415 -152.35938,13.039 -152.35938,13.039 0,0 55.40621,89.5117 150.64451,122.6602 58.64456,20.4218 118.6797,14.7109 156.1875,7.3125 l -11.84372,-5.9727 c -37.49219,-18.8789 -89.70318,-52.75 -125.48048,-106.8594 z m 367.9258,-30.1796 c -4.9688,10.1914 -10.6172,20.3085 -17.1602,30.1796 -35.7695,54.1094 -87.9805,87.9805 -125.4687,106.8594 l -11.8516,5.9727 c 37.5117,7.3984 97.5508,13.1093 156.1914,-7.3125 95.2383,-33.1485 150.6406,-122.6602 150.6406,-122.6602 0,0 -72.0625,-25.9805 -152.3515,-13.039" fill="#b2164f" id="path32"/><path transform="matrix(0.18821569,0,0,0.18853101,-0.6249243,-7.008955)" d="m 1060.5195,1199.6211 c -22.7695,-12.4414 -43.0078,-27.75 -60.5195,-45.1992 12,9.5898 24.9414,18.3164 38.8711,25.9297 167.8203,91.6875 379.5,-134.2735 526.3789,16.707 -145.5117,-110.6875 -344.9883,89.8398 -504.7305,2.5625" fill="#286291" id="path34"/><path transform="matrix(0.18821569,0,0,0.18853101,-0.6249243,-7.008955)" d="m 939.47659,1199.6211 c 22.77341,-12.4414 43.00781,-27.75 60.52341,-45.1992 -12,9.5898 -24.9375,18.3164 -38.8711,25.9297 -167.8164,91.6875 -379.5,-134.2735 -526.3828,16.707 145.5078,-110.6875 344.9922,89.8398 504.73049,2.5625" fill="#286291" id="path36"/></g><g style="clip-rule:evenodd;fill-rule:evenodd;image-rendering:optimizeQuality;shape-rendering:geometricPrecision;text-rendering:geometricPrecision" id="g274" transform="matrix(1.1432927,0,0,1.1432927,-534.01065,-854.49761)"><g id="g204"><path style="opacity:0.996" fill="#276190" d="m 1330.5,3132.5 c 62.67,0 125.33,0 188,0 0,304.33 0,608.67 0,913 -62.67,0 -125.33,0 -188,0 0,-304.33 0,-608.67 0,-913 z" id="path202"/></g><g id="g208"><path style="opacity:0.998" fill="#276190" d="m 492.5,3134.5 c 131.667,-0.17 263.334,0 395,0.5 46.269,0.99 91.269,8.99 135,24 63.16,25.5 105.33,70.67 126.5,135.5 16.8,51.82 16.47,103.49 -1,155 -11.34,27.68 -28.51,51.18 -51.5,70.5 -27.11,23.23 -57.78,40.23 -92,51 47.03,8.69 88.7,28.35 125,59 46.06,45.46 68.73,100.8 68,166 -2.3,91.65 -42.63,160.65 -121,207 -31.67,17 -65.33,28 -101,33 -24.209,3.79 -48.542,6.45 -73,8 -136.657,1.46 -273.324,1.96 -410,1.5 0,-303.67 0,-607.33 0,-911 z m 188,140 c 59.346,-0.42 118.679,0.08 178,1.5 29.379,0.68 56.045,9.35 80,26 16.231,14.29 26.398,32.12 30.5,53.5 6.04,29.24 4.04,57.91 -6,86 -10.714,25.05 -28.881,42.21 -54.5,51.5 -18.449,6.49 -37.449,10.16 -57,11 -56.99,1.36 -113.99,1.86 -171,1.5 0,-77 0,-154 0,-231 z m 0,373 c 55.334,-0.17 110.668,0 166,0.5 29.108,0.8 57.441,5.8 85,15 41.091,16.33 64.258,46.49 69.5,90.5 3.6,26.99 0.93,53.32 -8,79 -11.537,26.54 -31.037,44.37 -58.5,53.5 -18.914,5.85 -38.247,9.52 -58,11 -65.322,1.42 -130.655,1.92 -196,1.5 0,-83.67 0,-167.33 0,-251 z" id="path206"/></g><g id="g212"><path style="opacity:0.995" fill="#b1154e" d="m 5545.5,3141.5 c 66.67,0 133.33,0 200,0 0,54.33 0,108.67 0,163 -66.67,0 -133.33,0 -200,0 0,-54.33 0,-108.67 0,-163 z" id="path210"/></g><g id="g216"><path style="opacity:0.996" fill="#b2154e" d="m 4339.5,3142.5 c 112,-0.17 224,0 336,0.5 45.37,0.34 90.03,6 134,17 67.09,18.12 118.26,56.96 153.5,116.5 25.07,49.68 35.4,102.35 31,158 -2.93,63.46 -23.26,120.46 -61,171 -39.39,48.29 -90.22,76.79 -152.5,85.5 -26.17,4.14 -52.5,6.47 -79,7 -54,0.5 -108,0.67 -162,0.5 0,118 0,236 0,354 -66.67,0 -133.33,0 -200,0 0,-303.33 0,-606.67 0,-910 z m 195,148 c 46.68,-0.4 93.35,0.1 140,1.5 25.32,1.58 48.99,8.58 71,21 24.19,16.51 38.69,39.34 43.5,68.5 5.46,32.73 2.8,64.73 -8,96 -15.42,34.08 -41.25,55.91 -77.5,65.5 -21.32,5.43 -42.99,8.43 -65,9 -34.67,0.5 -69.33,0.67 -104,0.5 0,-87.33 0,-174.67 0,-262 z" id="path214"/></g><g id="g220"><path style="opacity:0.996" fill="#b2154e" d="m 6899.5,3225.5 c 2,63.99 2.66,128.32 2,193 50.33,0 100.67,0 151,0 0,41.33 0,82.67 0,124 -50.33,0 -100.67,0 -151,0 -0.17,101.33 0,202.67 0.5,304 -0.73,18.64 2.94,36.31 11,53 9.06,11.62 20.89,18.78 35.5,21.5 33.35,4.61 66.68,4.44 100,-0.5 1,41.33 1.33,82.66 1,124 -47.55,12.27 -95.88,18.94 -145,20 -30.23,0.35 -59.89,-3.49 -89,-11.5 -61.3,-19.32 -94.47,-61.15 -99.5,-125.5 -1.46,-128.32 -1.96,-256.66 -1.5,-385 -40.67,0 -81.33,0 -122,0 0,-41.33 0,-82.67 0,-124 40.67,0 81.33,0 122,0 -0.33,-41.67 0,-83.34 1,-125 61.51,-22.5 122.84,-45.17 184,-68 z" id="path218"/></g><g id="g224"><path style="opacity:0.996" fill="#276191" d="m 2714.5,3386.5 c 61.84,-3.87 119.84,8.96 174,38.5 49.55,29.89 86.05,71.39 109.5,124.5 24.57,57.59 36.07,117.76 34.5,180.5 -0.25,14.84 -0.58,29.67 -1,44.5 -142.67,0 -285.33,0 -428,0 -0.93,33.67 4.24,66.34 15.5,98 15.41,37.41 42.91,60.24 82.5,68.5 20.77,4.2 41.43,4.2 62,0 36.38,-8.72 61.22,-30.55 74.5,-65.5 2.15,-6.62 3.99,-13.28 5.5,-20 57.33,0 114.67,0 172,0 -5.22,69.3 -35.56,124.47 -91,165.5 -34.12,21.27 -71.12,35.27 -111,42 -53.67,8.66 -107.34,8.66 -161,0 -112.15,-19.81 -183.32,-84.65 -213.5,-194.5 -17.04,-70.72 -20.04,-142.05 -9,-214 9.29,-63.89 34.29,-120.56 75,-170 42.5,-47.02 95,-77.18 157.5,-90.5 17.35,-3.41 34.69,-5.91 52,-7.5 z m 7,128 c 57.21,-1.99 94.05,24.34 110.5,79 5.3,20.55 8.14,41.38 8.5,62.5 -76.67,0.5 -153.33,0.67 -230,0.5 0.38,-36.96 10.88,-70.63 31.5,-101 20.5,-25.34 47,-39 79.5,-41 z" id="path222"/></g><g id="g228"><path style="opacity:0.996" fill="#276191" d="m 1960.5,3392.5 c 45.74,-1.86 90.74,2.98 135,14.5 102.41,30.75 169.25,97.25 200.5,199.5 26.19,91.47 22.85,181.8 -10,271 -43.41,102.39 -119.91,163.89 -229.5,184.5 -71.77,12.97 -142.1,7.63 -211,-16 -98.13,-40.02 -158.97,-111.86 -182.5,-215.5 -17.8,-81.24 -13.47,-161.24 13,-240 44.14,-114.44 127.31,-179.27 249.5,-194.5 11.81,-1.23 23.48,-2.4 35,-3.5 z m 9,126 c 30.31,-2.31 58.64,3.86 85,18.5 23.15,15.84 39.65,37.01 49.5,63.5 8.79,24.26 14.12,49.26 16,75 4.31,50.15 1.65,100.15 -8,150 -21.84,91.69 -79,127.19 -171.5,106.5 -32.89,-10.56 -56.72,-31.39 -71.5,-62.5 -12.93,-29.99 -20.26,-61.32 -22,-94 -2.23,-34.69 -1.89,-69.36 1,-104 2.95,-38.86 14.95,-74.53 36,-107 21.9,-27.53 50.4,-42.87 85.5,-46 z" id="path226"/></g><g id="g232"><path style="opacity:0.996" fill="#276191" d="m 3525.5,3393.5 c 44.44,-1.68 86.78,6.82 127,25.5 39.1,21.1 66.93,52.26 83.5,93.5 39.11,-73 100.27,-111.83 183.5,-116.5 57.92,-5.16 111.26,7.84 160,39 50.96,39.06 79.12,90.89 84.5,155.5 1.74,16.96 2.74,33.96 3,51 0.5,134.67 0.67,269.33 0.5,404 -63,0 -126,0 -189,0 0.17,-128 0,-256 -0.5,-384 0.27,-24.52 -3.06,-48.52 -10,-72 -14.03,-38.35 -41.53,-58.85 -82.5,-61.5 -67.94,-5.05 -108.44,25.78 -121.5,92.5 -5.11,31.46 -7.61,63.12 -7.5,95 0.99,109.98 1.33,219.98 1,330 -63,0 -126,0 -189,0 0,-129.51 0,-258.84 0,-388 0.47,-26.88 -4.03,-52.88 -13.5,-78 -11.61,-25.6 -31.11,-41.77 -58.5,-48.5 -29.57,-6.11 -58.57,-4.11 -87,6 -30.14,13.82 -48.97,36.99 -56.5,69.5 -4.03,18.45 -6.2,37.11 -6.5,56 0.99,127.66 1.32,255.33 1,383 -63,0 -126,0 -189,0 0.17,-177.67 0,-355.33 -0.5,-533 -0.8,-35.1 -2.96,-70.1 -6.5,-105 60.67,0 121.33,0 182,0 1.38,26.78 3.55,53.45 6.5,80 35.32,-49.43 83.15,-79.27 143.5,-89.5 14.1,-2.07 28.1,-3.57 42,-4.5 z" id="path230"/></g><g id="g236"><path style="opacity:0.995" fill="#b2154e" d="m 6268.5,3397.5 c 48.63,-4.18 94.63,4.66 138,26.5 54.82,32.56 85.99,80.72 93.5,144.5 2.14,18.94 3.47,37.94 4,57 1.36,142.33 1.86,284.66 1.5,427 -64,0 -128,0 -192,0 0.17,-142.67 0,-285.33 -0.5,-428 -4.01,-42.34 -25.85,-71.18 -65.5,-86.5 -50.43,-12.94 -92.93,-0.11 -127.5,38.5 -13.54,20.62 -21.54,43.29 -24,68 -1.02,8.3 -1.68,16.64 -2,25 -0.5,127.67 -0.67,255.33 -0.5,383 -63,0 -126,0 -189,0 0.17,-191.33 0,-382.67 -0.5,-574 -0.57,-22.01 -1.4,-44.01 -2.5,-66 60,0 120,0 180,0 1.07,31.16 2.91,62.16 5.5,93 33.95,-57.09 83.78,-91.59 149.5,-103.5 10.76,-1.94 21.42,-3.44 32,-4.5 z" id="path234"/></g><g id="g240"><path style="opacity:0.997" fill="#b2154e" d="m 5455.5,3410.5 c 14.67,0 29.33,0 44,0 0,56.33 0,112.67 0,169 -34.91,-3.76 -69.57,-2.26 -104,4.5 -53.63,12.63 -84.8,46.13 -93.5,100.5 -1.59,10.28 -2.59,20.61 -3,31 -0.5,112.33 -0.67,224.67 -0.5,337 -62.33,0 -124.67,0 -187,0 0.17,-160.33 0,-320.67 -0.5,-481 -1.42,-53.08 -4.25,-106.08 -8.5,-159 58.67,0 117.33,0 176,0 1.09,39.36 2.59,78.69 4.5,118 13.8,-33.78 34.96,-61.95 63.5,-84.5 33.19,-21.55 69.52,-33.38 109,-35.5 z" id="path238"/></g><g id="g244"><path style="opacity:0.997" fill="#b1154e" d="m 5551.5,3413.5 c 62.67,0 125.33,0 188,0 0,213 0,426 0,639 -62.67,0 -125.33,0 -188,0 0,-213 0,-426 0,-639 z" id="path242"/></g></g></svg>