<svg xmlns="http://www.w3.org/2000/svg" xmlns:xlink="http://www.w3.org/1999/xlink" version="1.1" style="shape-rendering:geometricPrecision; text-rendering:geometricPrecision; image-rendering:optimizeQuality; fill-rule:evenodd; clip-rule:evenodd" viewBox="56.14 2508.44 7385.77 2481.07">
<g><path style="opacity:1" fill="#af164e" d="M 1248.5,2508.5 C 2915.5,2508.33 4582.5,2508.5 6249.5,2509C 6553.14,2524.23 6817.14,2632.9 7041.5,2835C 7269.46,3048.75 7400.96,3311.91 7436,3624.5C 7461.56,3898.73 7404.23,4154.06 7264,4390.5C 7132.18,4605.98 6952.02,4767.48 6723.5,4875C 6572.16,4944.58 6413.16,4982.58 6246.5,4989C 4581.5,4989.67 2916.5,4989.67 1251.5,4989C 972.161,4976.37 724.494,4882.7 508.5,4708C 302.289,4535.91 164.456,4319.41 95,4058.5C 28.3995,3789.24 47.3995,3526.24 152,3269.5C 259.09,3018.75 429.256,2822.92 662.5,2682C 843.421,2575.77 1038.75,2517.93 1248.5,2508.5 Z"/></g>
<g><path style="opacity:1" fill="#fefefe" d="M 1657.5,3445.5 C 1707.95,3443.41 1756.62,3451.58 1803.5,3470C 1879.98,3503.32 1931.65,3559.49 1958.5,3638.5C 1912.5,3639.67 1866.5,3639.83 1820.5,3639C 1789.18,3581.07 1740.35,3552.91 1674,3554.5C 1593.77,3556.6 1539.1,3594.93 1510,3669.5C 1498.68,3703.62 1494.68,3738.62 1498,3774.5C 1500.85,3813.04 1512.85,3848.37 1534,3880.5C 1569.11,3926.39 1615.78,3949.72 1674,3950.5C 1740.9,3951.48 1789.74,3922.64 1820.5,3864C 1866.5,3863.17 1912.5,3863.33 1958.5,3864.5C 1930.26,3948.24 1874.93,4006.07 1792.5,4038C 1725.3,4060.98 1657.3,4063.65 1588.5,4046C 1474.85,4010.68 1405.35,3934.85 1380,3818.5C 1362.42,3729.61 1378.09,3647.28 1427,3571.5C 1477.09,3503.18 1544.25,3462.35 1628.5,3449C 1638.35,3448.15 1648.02,3446.99 1657.5,3445.5 Z"/></g>
<g><path style="opacity:1" fill="#fefefe" d="M 5142.5,3453.5 C 5182.83,3453.5 5223.17,3453.5 5263.5,3453.5C 5263.33,3582.5 5263.5,3711.5 5264,3840.5C 5264.96,3876.25 5279.13,3905.42 5306.5,3928C 5328.97,3943 5353.81,3950.16 5381,3949.5C 5459.46,3949.71 5501.12,3910.71 5506,3832.5C 5506.5,3706.17 5506.67,3579.83 5506.5,3453.5C 5546.83,3453.5 5587.17,3453.5 5627.5,3453.5C 5627.67,3581.83 5627.5,3710.17 5627,3838.5C 5619.03,3951.78 5560.2,4022.62 5450.5,4051C 5400.57,4061.69 5350.9,4060.69 5301.5,4048C 5209.86,4018.67 5157.69,3956.17 5145,3860.5C 5144.54,3853.15 5143.87,3845.81 5143,3838.5C 5142.5,3710.17 5142.33,3581.83 5142.5,3453.5 Z"/></g>
<g><path style="opacity:1" fill="#ba3968" d="M 3195.5,3459.5 C 3195.5,3498.83 3195.5,3538.17 3195.5,3577.5C 3176.5,3577.5 3157.5,3577.5 3138.5,3577.5C 3156.99,3576.5 3175.66,3576.17 3194.5,3576.5C 3194.17,3537.33 3194.5,3498.33 3195.5,3459.5 Z"/></g>
<g><path style="opacity:1" fill="#fefefe" d="M 3195.5,3459.5 C 3235.83,3459.5 3276.17,3459.5 3316.5,3459.5C 3316.5,3498.83 3316.5,3538.17 3316.5,3577.5C 3351.83,3577.5 3387.17,3577.5 3422.5,3577.5C 3422.5,3610.17 3422.5,3642.83 3422.5,3675.5C 3387.17,3675.5 3351.83,3675.5 3316.5,3675.5C 3316.33,3755.5 3316.5,3835.5 3317,3915.5C 3318.66,3934.5 3328.83,3946 3347.5,3950C 3372.47,3951.41 3397.47,3951.91 3422.5,3951.5C 3422.5,3985.17 3422.5,4018.83 3422.5,4052.5C 3390.83,4052.67 3359.16,4052.5 3327.5,4052C 3238.85,4044.85 3194.85,3996.68 3195.5,3907.5C 3195.5,3830.17 3195.5,3752.83 3195.5,3675.5C 3176.5,3675.5 3157.5,3675.5 3138.5,3675.5C 3138.5,3642.83 3138.5,3610.17 3138.5,3577.5C 3157.5,3577.5 3176.5,3577.5 3195.5,3577.5C 3195.5,3538.17 3195.5,3498.83 3195.5,3459.5 Z"/></g>
<g><path style="opacity:1" fill="#fefefe" d="M 4853.5,3675.5 C 4818.17,3675.5 4782.83,3675.5 4747.5,3675.5C 4747.17,3754.67 4747.5,3833.67 4748.5,3912.5C 4749.46,3936.63 4762.13,3949.46 4786.5,3951C 4809.16,3951.5 4831.83,3951.67 4854.5,3951.5C 4854.5,3985.17 4854.5,4018.83 4854.5,4052.5C 4821.83,4052.67 4789.16,4052.5 4756.5,4052C 4727.95,4050.48 4701.62,4042.15 4677.5,4027C 4656.55,4011.3 4642.39,3990.8 4635,3965.5C 4631.56,3954.07 4629.22,3942.4 4628,3930.5C 4626.54,3845.51 4626.04,3760.51 4626.5,3675.5C 4607.5,3675.5 4588.5,3675.5 4569.5,3675.5C 4569.5,3642.83 4569.5,3610.17 4569.5,3577.5C 4588.5,3577.5 4607.5,3577.5 4626.5,3577.5C 4626.5,3538.17 4626.5,3498.83 4626.5,3459.5C 4666.83,3459.5 4707.17,3459.5 4747.5,3459.5C 4747.5,3498.83 4747.5,3538.17 4747.5,3577.5C 4783.17,3577.5 4818.83,3577.5 4854.5,3577.5C 4854.83,3610.34 4854.5,3643 4853.5,3675.5 Z"/></g>
<g><path style="opacity:1" fill="#fefefe" d="M 2256.5,3569.5 C 2315.44,3565.98 2369.77,3579.82 2419.5,3611C 2480.63,3655.39 2514.13,3715.56 2520,3791.5C 2524.91,3851.1 2511.58,3906.1 2480,3956.5C 2435.61,4017.63 2375.44,4051.8 2299.5,4059C 2232.09,4065.99 2171.42,4049.32 2117.5,4009C 2067.03,3965.9 2038.86,3911.07 2033,3844.5C 2027.25,3790.33 2036.58,3739 2061,3690.5C 2095.4,3630.18 2146.56,3592.02 2214.5,3576C 2228.54,3573.14 2242.54,3570.98 2256.5,3569.5 Z"/></g>
<g><path style="opacity:1" fill="#fefefe" d="M 3851.5,3643.5 C 3851.56,3644.04 3851.89,3644.38 3852.5,3644.5C 3853.5,3622.18 3853.83,3599.84 3853.5,3577.5C 3893.5,3577.5 3933.5,3577.5 3973.5,3577.5C 3973.5,3735.83 3973.5,3894.17 3973.5,4052.5C 3933.17,4052.5 3892.83,4052.5 3852.5,4052.5C 3852.67,4029.5 3852.5,4006.5 3852,3983.5C 3829.65,4014.84 3800.15,4036.67 3763.5,4049C 3699.36,4069.57 3638.7,4062.23 3581.5,4027C 3536.54,3995.64 3506.37,3953.47 3491,3900.5C 3475.66,3845.41 3474.66,3790.08 3488,3734.5C 3505.97,3667.66 3545.81,3618.83 3607.5,3588C 3661.48,3565.22 3716.14,3563.55 3771.5,3583C 3803.92,3595.69 3830.58,3615.86 3851.5,3643.5 Z"/></g>
<g><path style="opacity:1" fill="#fefefe" d="M 4389.5,3892.5 C 4432.85,3891.84 4475.85,3892.51 4518.5,3894.5C 4494.58,3981.58 4438.58,4035.08 4350.5,4055C 4287.6,4067.83 4227.93,4059.16 4171.5,4029C 4117.33,3995.23 4082.83,3947.07 4068,3884.5C 4052.61,3818.71 4058.61,3755.05 4086,3693.5C 4122.19,3624.45 4179.02,3583.95 4256.5,3572C 4305.69,3565.14 4353.36,3570.81 4399.5,3589C 4449.87,3611.7 4485.7,3648.54 4507,3699.5C 4511.87,3711.6 4516.03,3723.93 4519.5,3736.5C 4476.17,3737.83 4432.83,3737.83 4389.5,3736.5C 4372.44,3692.03 4339.94,3670.36 4292,3671.5C 4251.58,3672.37 4221.58,3690.37 4202,3725.5C 4185.16,3760.66 4179.16,3797.66 4184,3836.5C 4185.71,3867.37 4195.37,3895.37 4213,3920.5C 4237.26,3948.04 4267.76,3960.2 4304.5,3957C 4347.16,3954.15 4375.49,3932.65 4389.5,3892.5 Z"/></g>
<g><path style="opacity:1" fill="#fefefe" d="M 5901.5,3569.5 C 5939.89,3567.92 5976.89,3574.09 6012.5,3588C 6070.21,3615.58 6101.87,3661.42 6107.5,3725.5C 6069.17,3726.5 6030.84,3726.83 5992.5,3726.5C 5987.39,3693.55 5968.39,3673.72 5935.5,3667C 5908.98,3660.98 5883.98,3664.64 5860.5,3678C 5842.67,3693.83 5839.84,3711.99 5852,3732.5C 5860.45,3741.28 5870.29,3748.12 5881.5,3753C 5891.09,3756.53 5900.76,3759.86 5910.5,3763C 5935.17,3769.67 5959.83,3776.33 5984.5,3783C 6015.67,3791.09 6044.01,3804.76 6069.5,3824C 6101.41,3853.05 6115.25,3889.22 6111,3932.5C 6104.95,3973.81 6084.45,4005.64 6049.5,4028C 6014.36,4048.56 5976.36,4059.22 5935.5,4060C 5879.67,4062.96 5828.67,4048.96 5782.5,4018C 5743.58,3989.35 5721.92,3950.85 5717.5,3902.5C 5757.83,3902.5 5798.17,3902.5 5838.5,3902.5C 5842.83,3929.01 5857.49,3947.51 5882.5,3958C 5900.9,3964.84 5919.9,3967.18 5939.5,3965C 5958.53,3963.44 5974.7,3955.94 5988,3942.5C 6003.12,3916.45 5997.62,3895.95 5971.5,3881C 5960.82,3875.88 5949.82,3871.55 5938.5,3868C 5904.34,3859.29 5870.34,3849.96 5836.5,3840C 5812.06,3832.1 5789.73,3820.43 5769.5,3805C 5737.12,3775.7 5723.62,3739.2 5729,3695.5C 5735.53,3656.58 5755.03,3626.08 5787.5,3604C 5822.47,3582.29 5860.47,3570.79 5901.5,3569.5 Z"/></g>
<g><path style="opacity:1" fill="#fefefe" d="M 2855.5,3570.5 C 2896.36,3567.77 2935.02,3575.6 2971.5,3594C 3015.38,3620.6 3043.22,3659.1 3055,3709.5C 3058.92,3725.93 3061.25,3742.6 3062,3759.5C 3062.5,3857.17 3062.67,3954.83 3062.5,4052.5C 3022.5,4052.5 2982.5,4052.5 2942.5,4052.5C 2942.67,3961.17 2942.5,3869.83 2942,3778.5C 2935.25,3703.08 2894.08,3667.92 2818.5,3673C 2772.5,3680.09 2744,3706.25 2733,3751.5C 2731.28,3758.4 2730.28,3765.4 2730,3772.5C 2729.5,3865.83 2729.33,3959.17 2729.5,4052.5C 2689.5,4052.5 2649.5,4052.5 2609.5,4052.5C 2609.5,3894.17 2609.5,3735.83 2609.5,3577.5C 2649.5,3577.5 2689.5,3577.5 2729.5,3577.5C 2729.33,3596.84 2729.5,3616.17 2730,3635.5C 2750.95,3609.26 2777.45,3590.76 2809.5,3580C 2824.75,3575.72 2840.09,3572.55 2855.5,3570.5 Z"/></g>
<g><path style="opacity:1" fill="#f2dbe4" d="M 3853.5,3577.5 C 3853.83,3599.84 3853.5,3622.18 3852.5,3644.5C 3851.89,3644.38 3851.56,3644.04 3851.5,3643.5C 3852.17,3621.5 3852.83,3599.5 3853.5,3577.5 Z"/></g>
<g><path style="opacity:1" fill="#af164e" d="M 2259.5,3674.5 C 2335.32,3672.67 2380.48,3709 2395,3783.5C 2400.08,3815.93 2397.08,3847.6 2386,3878.5C 2367.02,3922.92 2333.52,3948.42 2285.5,3955C 2219.14,3957.91 2176.98,3927.41 2159,3863.5C 2150.16,3825.32 2151.82,3787.65 2164,3750.5C 2181.39,3706.9 2213.22,3681.57 2259.5,3674.5 Z"/></g>
<g><path style="opacity:1" fill="#af164e" d="M 3709.5,3675.5 C 3774.84,3671.23 3819.67,3699.23 3844,3759.5C 3859.08,3807.45 3854.75,3853.45 3831,3897.5C 3805.46,3935.53 3769.62,3954.53 3723.5,3954.5C 3680.07,3952.22 3646.57,3932.88 3623,3896.5C 3604.62,3863.53 3597.62,3828.19 3602,3790.5C 3606.68,3750.94 3624.85,3719.44 3656.5,3696C 3672.93,3685.7 3690.6,3678.86 3709.5,3675.5 Z"/></g>
<g><path style="opacity:1" fill="#b93666" d="M 3138.5,3675.5 C 3157.5,3675.5 3176.5,3675.5 3195.5,3675.5C 3195.5,3752.83 3195.5,3830.17 3195.5,3907.5C 3194.5,3830.67 3194.17,3753.67 3194.5,3676.5C 3175.66,3676.83 3156.99,3676.5 3138.5,3675.5 Z"/></g>
<g><path style="opacity:1" fill="#ba3a68" d="M 4853.5,3675.5 C 4818.67,3676.5 4783.67,3676.83 4748.5,3676.5C 4748.5,3755.17 4748.5,3833.83 4748.5,3912.5C 4747.5,3833.67 4747.17,3754.67 4747.5,3675.5C 4782.83,3675.5 4818.17,3675.5 4853.5,3675.5 Z"/></g>
<g><path style="opacity:1" fill="#d78ba7" d="M 4389.5,3892.5 C 4432.66,3891.5 4476,3891.17 4519.5,3891.5C 4519.74,3892.79 4519.4,3893.79 4518.5,3894.5C 4475.85,3892.51 4432.85,3891.84 4389.5,3892.5 Z"/></g>
</svg>