<svg xmlns="http://www.w3.org/2000/svg" xmlns:xlink="http://www.w3.org/1999/xlink" version="1.1" style="shape-rendering:geometricPrecision; text-rendering:geometricPrecision; image-rendering:optimizeQuality; fill-rule:evenodd; clip-rule:evenodd" viewBox="34.47 2565.44 7428.62 2374.07">
<g><path style="opacity:1" fill="#af164e" d="M 1174.5,2565.5 C 2890.5,2565.33 4606.5,2565.5 6322.5,2566C 6642.8,2582.88 6914.3,2705.38 7137,2933.5C 7344.7,3157.07 7453.37,3422.41 7463,3729.5C 7465.99,3988.67 7393.99,4224.34 7247,4436.5C 7089.32,4656.01 6881.15,4806.51 6622.5,4888C 6518.16,4919.5 6411.49,4936.5 6302.5,4939C 4599.83,4939.67 2897.17,4939.67 1194.5,4939C 887.926,4928.22 623.259,4818.89 400.5,4611C 183.569,4398.92 62.4026,4140.75 37,3836.5C 20.339,3565.91 86.0056,3317.57 234,3091.5C 392.618,2859.35 606.452,2700.85 875.5,2616C 973.185,2586.61 1072.85,2569.77 1174.5,2565.5 Z"/></g>
<g><path style="opacity:1" fill="#fefefe" d="M 1850.5,3638.5 C 1807.18,3640.49 1763.51,3641.16 1719.5,3640.5C 1692.13,3594.62 1651.46,3570.46 1597.5,3568C 1535,3563.68 1484.5,3585.85 1446,3634.5C 1417.72,3677.62 1406.39,3724.95 1412,3776.5C 1415.18,3817.74 1429.51,3854.4 1455,3886.5C 1485.76,3919.29 1523.59,3937.79 1568.5,3942C 1606.85,3945.99 1643.19,3939.33 1677.5,3922C 1705.75,3904.74 1726.59,3880.91 1740,3850.5C 1745.28,3837.83 1749.44,3824.83 1752.5,3811.5C 1686.84,3810.5 1621.17,3810.17 1555.5,3810.5C 1555.5,3781.5 1555.5,3752.5 1555.5,3723.5C 1658.83,3723.5 1762.17,3723.5 1865.5,3723.5C 1880.93,3830.71 1847.26,3918.54 1764.5,3987C 1701.84,4033.25 1631.51,4052.59 1553.5,4045C 1465.63,4036.01 1395.8,3996.17 1344,3925.5C 1300.37,3857.28 1284.7,3782.95 1297,3702.5C 1318.22,3587.28 1384.39,3511.11 1495.5,3474C 1572.36,3453.43 1647.36,3458.77 1720.5,3490C 1784.63,3521.29 1827.96,3570.79 1850.5,3638.5 Z"/></g>
<g><path style="opacity:1" fill="#fefefe" d="M 4000.5,3460.5 C 4077.28,3457.04 4145.95,3478.54 4206.5,3525C 4275.99,3584.34 4310.99,3660 4311.5,3752C 4310.88,3852.9 4270.88,3933.9 4191.5,3995C 4235.21,4043.7 4278.54,4092.7 4321.5,4142C 4274.17,4142.67 4226.83,4142.67 4179.5,4142C 4150.46,4107.96 4121.79,4073.63 4093.5,4039C 4077.91,4041.43 4062.24,4043.76 4046.5,4046C 3960.5,4052.89 3884.83,4028.55 3819.5,3973C 3762.41,3919.31 3731.25,3853.15 3726,3774.5C 3719.76,3672.86 3755.26,3589.36 3832.5,3524C 3882.19,3486.33 3938.19,3465.16 4000.5,3460.5 Z"/></g>
<g><path style="opacity:1" fill="#fefefe" d="M 3140.5,3468.5 C 3185.41,3468.17 3230.24,3468.5 3275,3469.5C 3343.31,3660.09 3411.81,3850.59 3480.5,4041C 3439.83,4041.5 3399.17,4041.67 3358.5,4041.5C 3346.57,4005.39 3334.24,3969.39 3321.5,3933.5C 3245.17,3932.5 3168.84,3932.17 3092.5,3932.5C 3080.57,3968.61 3068.24,4004.61 3055.5,4040.5C 3015.17,4041.67 2974.84,4041.83 2934.5,4041C 3003.59,3850.32 3072.26,3659.49 3140.5,3468.5 Z"/></g>
<g><path style="opacity:1" fill="#fefefe" d="M 2590.5,3474.5 C 2590.5,3512.17 2590.5,3549.83 2590.5,3587.5C 2624.5,3587.5 2658.5,3587.5 2692.5,3587.5C 2692.5,3618.83 2692.5,3650.17 2692.5,3681.5C 2658.5,3681.5 2624.5,3681.5 2590.5,3681.5C 2590.33,3756.83 2590.5,3832.17 2591,3907.5C 2591.19,3926.35 2600.36,3938.18 2618.5,3943C 2643.13,3944.44 2667.8,3944.94 2692.5,3944.5C 2692.5,3976.83 2692.5,4009.17 2692.5,4041.5C 2661.5,4041.67 2630.5,4041.5 2599.5,4041C 2571.53,4039.45 2545.86,4031.12 2522.5,4016C 2502.15,4000.16 2488.65,3979.66 2482,3954.5C 2478.88,3943.02 2476.88,3931.36 2476,3919.5C 2475.5,3840.17 2475.33,3760.83 2475.5,3681.5C 2457.5,3681.5 2439.5,3681.5 2421.5,3681.5C 2421.5,3650.17 2421.5,3618.83 2421.5,3587.5C 2439.5,3587.5 2457.5,3587.5 2475.5,3587.5C 2475.5,3549.83 2475.5,3512.17 2475.5,3474.5C 2513.83,3474.5 2552.17,3474.5 2590.5,3474.5 Z"/></g>
<g><path style="opacity:1" fill="#fefefe" d="M 5597.5,3474.5 C 5597.5,3512.17 5597.5,3549.83 5597.5,3587.5C 5631.5,3587.5 5665.5,3587.5 5699.5,3587.5C 5699.5,3618.83 5699.5,3650.17 5699.5,3681.5C 5665.5,3681.5 5631.5,3681.5 5597.5,3681.5C 5597.33,3756.83 5597.5,3832.17 5598,3907.5C 5598.2,3926.36 5607.37,3938.19 5625.5,3943C 5650.13,3944.44 5674.8,3944.94 5699.5,3944.5C 5699.5,3976.83 5699.5,4009.17 5699.5,4041.5C 5668.5,4041.67 5637.5,4041.5 5606.5,4041C 5578.53,4039.45 5552.86,4031.12 5529.5,4016C 5509.15,4000.16 5495.65,3979.66 5489,3954.5C 5485.88,3943.02 5483.88,3931.36 5483,3919.5C 5482.5,3840.17 5482.33,3760.83 5482.5,3681.5C 5464.5,3681.5 5446.5,3681.5 5428.5,3681.5C 5428.5,3650.17 5428.5,3618.83 5428.5,3587.5C 5446.5,3587.5 5464.5,3587.5 5482.5,3587.5C 5482.5,3549.83 5482.5,3512.17 5482.5,3474.5C 5520.83,3474.5 5559.17,3474.5 5597.5,3474.5 Z"/></g>
<g><path style="opacity:1" fill="#af164e" d="M 3995.5,3564.5 C 4038.83,3560.26 4079.16,3569.1 4116.5,3591C 4152.13,3615.72 4175.3,3649.22 4186,3691.5C 4198.24,3742.77 4195.24,3793.11 4177,3842.5C 4150.4,3902.74 4104.23,3936.57 4038.5,3944C 3985.28,3949.37 3938.61,3934.7 3898.5,3900C 3865.54,3865.22 3847.37,3823.72 3844,3775.5C 3840.13,3735.24 3846.13,3696.57 3862,3659.5C 3889.67,3604.35 3934.17,3572.68 3995.5,3564.5 Z"/></g>
<g><path style="opacity:1" fill="#fefefe" d="M 2131.5,3579.5 C 2177.47,3577.26 2221.13,3586.09 2262.5,3606C 2322.86,3640.09 2358.69,3691.59 2370,3760.5C 2374.48,3789.81 2374.64,3819.14 2370.5,3848.5C 2259.83,3848.5 2149.17,3848.5 2038.5,3848.5C 2041.11,3893.94 2062.78,3926.44 2103.5,3946C 2133.32,3956.32 2162.99,3955.99 2192.5,3945C 2213.03,3935.3 2228.03,3920.14 2237.5,3899.5C 2278.83,3898.5 2320.16,3898.17 2361.5,3898.5C 2347.17,3947.33 2318.83,3985.83 2276.5,4014C 2229.01,4042.17 2177.67,4053.5 2122.5,4048C 2056.99,4041.51 2004.49,4012.35 1965,3960.5C 1935.09,3916.06 1920.59,3866.9 1921.5,3813C 1920.4,3755.64 1936.9,3704.14 1971,3658.5C 2006.53,3617.14 2051.37,3591.97 2105.5,3583C 2114.31,3581.78 2122.97,3580.62 2131.5,3579.5 Z"/></g>
<g><path style="opacity:1" fill="#fefefe" d="M 5128.5,3579.5 C 5185.95,3576.53 5238.61,3590.69 5286.5,3622C 5343.6,3665.01 5374.43,3722.51 5379,3794.5C 5383.3,3852.29 5369.64,3905.29 5338,3953.5C 5303.98,3999.12 5259.14,4028.62 5203.5,4042C 5141.06,4056.53 5081.39,4049.2 5024.5,4020C 4967.65,3986.55 4932.15,3937.38 4918,3872.5C 4905.93,3815.71 4911.27,3760.71 4934,3707.5C 4969.04,3637.84 5025.21,3596.34 5102.5,3583C 5111.31,3581.78 5119.97,3580.62 5128.5,3579.5 Z"/></g>
<g><path style="opacity:1" fill="#fefefe" d="M 6069.5,3899.5 C 6110.67,3899.17 6151.67,3899.5 6192.5,3900.5C 6173.4,3960.77 6135.07,4003.93 6077.5,4030C 6023.27,4050.86 5967.93,4054.2 5911.5,4040C 5834.42,4015.92 5784.59,3965.09 5762,3887.5C 5746.01,3825.44 5750.01,3764.78 5774,3705.5C 5801.56,3646.27 5846.73,3607.44 5909.5,3589C 5968.09,3573.57 6025.43,3577.24 6081.5,3600C 6148.18,3632.38 6188.01,3685.21 6201,3758.5C 6205.42,3788.49 6205.59,3818.49 6201.5,3848.5C 6090.83,3848.5 5980.17,3848.5 5869.5,3848.5C 5871.57,3885.82 5887.57,3915.32 5917.5,3937C 5941.16,3951.66 5966.83,3957 5994.5,3953C 6029.12,3948.38 6054.12,3930.55 6069.5,3899.5 Z"/></g>
<g><path style="opacity:1" fill="#d27c9b" d="M 2590.5,3474.5 C 2591.5,3511.66 2591.83,3549 2591.5,3586.5C 2625.34,3586.17 2659,3586.5 2692.5,3587.5C 2658.5,3587.5 2624.5,3587.5 2590.5,3587.5C 2590.5,3549.83 2590.5,3512.17 2590.5,3474.5 Z"/></g>
<g><path style="opacity:1" fill="#d27c9b" d="M 5597.5,3474.5 C 5598.5,3511.66 5598.83,3549 5598.5,3586.5C 5632.34,3586.17 5666,3586.5 5699.5,3587.5C 5665.5,3587.5 5631.5,3587.5 5597.5,3587.5C 5597.5,3549.83 5597.5,3512.17 5597.5,3474.5 Z"/></g>
<g><path style="opacity:1" fill="#fefefe" d="M 4711.5,3844.5 C 4712.5,3759 4712.83,3673.33 4712.5,3587.5C 4750.83,3587.5 4789.17,3587.5 4827.5,3587.5C 4827.5,3738.83 4827.5,3890.17 4827.5,4041.5C 4789.17,4041.5 4750.83,4041.5 4712.5,4041.5C 4712.83,4022.49 4712.5,4003.49 4711.5,3984.5C 4710.89,3984.62 4710.56,3984.96 4710.5,3985.5C 4681.43,4020.54 4644.1,4040.71 4598.5,4046C 4547.27,4052.28 4500.93,4040.28 4459.5,4010C 4430.59,3985.36 4411.42,3954.53 4402,3917.5C 4399.24,3905.97 4397.24,3894.3 4396,3882.5C 4394.54,3784.18 4394.04,3685.85 4394.5,3587.5C 4432.83,3587.5 4471.17,3587.5 4509.5,3587.5C 4509.33,3675.5 4509.5,3763.5 4510,3851.5C 4511.26,3882.85 4523.43,3909.01 4546.5,3930C 4573.89,3948.73 4603.89,3954.39 4636.5,3947C 4675.4,3937.77 4699.23,3913.6 4708,3874.5C 4710.37,3864.63 4711.53,3854.63 4711.5,3844.5 Z"/></g>
<g><path style="opacity:1" fill="#db97b0" d="M 4827.5,3587.5 C 4789.17,3587.5 4750.83,3587.5 4712.5,3587.5C 4712.83,3673.33 4712.5,3759 4711.5,3844.5C 4711.5,3758.5 4711.5,3672.5 4711.5,3586.5C 4750.34,3586.17 4789,3586.5 4827.5,3587.5 Z"/></g>
<g><path style="opacity:1" fill="#af174e" d="M 3206.5,3601.5 C 3235.13,3680.73 3262.8,3760.4 3289.5,3840.5C 3234.5,3840.83 3179.5,3840.5 3124.5,3839.5C 3152.04,3760.22 3179.37,3680.88 3206.5,3601.5 Z"/></g>
<g><path style="opacity:1" fill="#ebc5d3" d="M 1850.5,3638.5 C 1851.4,3639.21 1851.74,3640.21 1851.5,3641.5C 1807.33,3641.83 1763.33,3641.5 1719.5,3640.5C 1763.51,3641.16 1807.18,3640.49 1850.5,3638.5 Z"/></g>
<g><path style="opacity:1" fill="#af174e" d="M 2130.5,3674.5 C 2163.33,3670.95 2192.99,3678.79 2219.5,3698C 2242.05,3717.27 2253.72,3741.77 2254.5,3771.5C 2182.5,3771.5 2110.5,3771.5 2038.5,3771.5C 2046.76,3717.58 2077.42,3685.25 2130.5,3674.5 Z"/></g>
<g><path style="opacity:1" fill="#af174e" d="M 5960.5,3674.5 C 5993.18,3670.68 6022.84,3678.18 6049.5,3697C 6073.05,3716.12 6085.05,3740.95 6085.5,3771.5C 6013.83,3771.5 5942.17,3771.5 5870.5,3771.5C 5877.8,3717.87 5907.8,3685.54 5960.5,3674.5 Z"/></g>
<g><path style="opacity:1" fill="#af164e" d="M 5131.5,3679.5 C 5194.12,3677.03 5235.28,3705.37 5255,3764.5C 5265.35,3803.5 5263.35,3841.84 5249,3879.5C 5223.43,3930.55 5181.93,3953.38 5124.5,3948C 5074.5,3937.66 5044,3907.5 5033,3857.5C 5025.23,3821.56 5027.23,3786.23 5039,3751.5C 5056.3,3710.03 5087.13,3686.03 5131.5,3679.5 Z"/></g>
<g><path style="opacity:1" fill="#eac4d2" d="M 6069.5,3899.5 C 6110.67,3898.17 6152,3898.17 6193.5,3899.5C 6193.38,3900.11 6193.04,3900.44 6192.5,3900.5C 6151.67,3899.5 6110.67,3899.17 6069.5,3899.5 Z"/></g>
<g><path style="opacity:1" fill="#dc9bb3" d="M 4710.5,3985.5 C 4710.56,3984.96 4710.89,3984.62 4711.5,3984.5C 4712.5,4003.49 4712.83,4022.49 4712.5,4041.5C 4711.83,4022.83 4711.17,4004.17 4710.5,3985.5 Z"/></g>
</svg>